<svg width="120" height="48" viewBox="0 0 120 48" fill="none" xmlns="http://www.w3.org/2000/svg">
<path d="M110.976 36.7437H117V4.30469H110.976V36.7437ZM88.7317 24.4404C88.7317 20.3815 91.2117 17.2803 95.1974 17.2803C99.0058 17.2803 101.707 20.3359 101.707 24.4404C101.707 28.5906 99.1388 31.6462 95.1974 31.6462C91.3445 31.6462 88.7317 28.5906 88.7317 24.4404ZM101.981 36.3442H107.732V12.5826H101.891V14.7144C100.678 13.3819 98.1173 12.1827 94.9274 12.1827C87.6043 12.1827 82.7073 17.4237 82.7073 24.4411C82.7073 31.8138 87.6492 36.7437 94.9274 36.7437C98.7913 36.7437 101.083 35.1451 101.981 33.9901V36.3442ZM77.4918 8.47542H71.5671V12.5138H69.2683V17.8533H71.5671V29.8336C71.5671 34.5899 74.0431 36.7437 78.7739 36.7437C80.3658 36.7437 81.5593 36.5641 81.7805 36.5195V31.2246H80.4982C78.2434 31.2246 77.4918 30.3271 77.4918 27.9939V17.8533H81.6477V12.5138H77.4918V8.47542ZM67.4146 12.7357C67.2811 12.6909 67.0585 12.6462 66.6133 12.6462C64.1202 12.6462 63.1853 14.169 62.7847 14.7514V12.7806H57.2195V36.7437H63.1853V22.3657C63.1853 19.9471 64.1202 18.5138 67.4146 18.2897V12.7357ZM35.9024 24.4863C35.9024 20.329 38.4441 17.2803 42.3681 17.2803C46.2027 17.2803 48.878 20.3752 48.878 24.4863C48.878 28.5975 46.3364 31.6462 42.4126 31.6462C38.5778 31.6462 35.9024 28.6436 35.9024 24.4863ZM29.878 24.5299C29.878 31.5473 34.8918 36.7437 42.3679 36.7437C49.7543 36.7437 54.9024 31.4141 54.9024 24.4411C54.9024 17.4237 49.9333 12.1827 42.3679 12.1827C35.1604 12.1827 29.878 17.4681 29.878 24.5299ZM9.02439 24.486C9.02439 20.3359 11.4876 17.2803 15.4902 17.2803C19.4047 17.2803 22 20.3359 22 24.486C22 28.6362 19.5368 31.6462 15.5342 31.6462C11.6195 31.6462 9.02439 28.6362 9.02439 24.486ZM8.99863 34.5202C10.1178 35.5193 12.4458 36.8364 15.7585 36.8364C23.3688 36.8364 28.0244 31.25 28.0244 24.2097C28.0244 16.8972 23.2791 11.7193 16.0271 11.7193C11.6848 11.7193 9.62542 13.5817 8.81966 14.49V12.1283H3V43.6949H8.99863V34.5202Z" fill="#AEB2BA"/>
</svg>
