<svg width="20" height="21" viewBox="0 0 20 21" fill="none" xmlns="http://www.w3.org/2000/svg">
<g clip-path="url(#clip0_1661_6488)">
<path d="M14.3668 0.5H10.914V14.1232C10.914 15.7464 9.58602 17.0797 7.9334 17.0797C6.28077 17.0797 4.95278 15.7464 4.95278 14.1232C4.95278 12.529 6.25127 11.2246 7.84488 11.1667V7.74639C4.33305 7.80433 1.5 10.6159 1.5 14.1232C1.5 17.6594 4.39207 20.5 7.96292 20.5C11.5337 20.5 14.4258 17.6304 14.4258 14.1232V7.13767C15.7243 8.06522 17.3179 8.61594 19 8.64495V5.22464C16.4031 5.13768 14.3668 3.05072 14.3668 0.5Z" fill="white"/>
</g>
<defs>
<clipPath id="clip0_1661_6488">
<rect y="0.5" width="20" height="20" rx="6" fill="white"/>
</clipPath>
</defs>
</svg>
