<svg width="20" height="21" viewBox="0 0 20 21" fill="none" xmlns="http://www.w3.org/2000/svg">
<path d="M19.5881 5.69109C19.3574 4.83443 18.682 4.15898 17.8253 3.92833C16.2602 3.5 9.99996 3.5 9.99996 3.5C9.99996 3.5 3.73969 3.5 2.17462 3.91186C1.33443 4.1425 0.642501 4.83443 0.41186 5.69109C0 7.25616 0 10.5016 0 10.5016C0 10.5016 0 13.7635 0.41186 15.3121C0.642501 16.1688 1.31795 16.8443 2.17462 17.0749C3.75616 17.5032 9.99996 17.5032 9.99996 17.5032C9.99996 17.5032 16.2602 17.5032 17.8253 17.0914C18.682 16.8607 19.3574 16.1853 19.5881 15.3286C19.9999 13.7635 19.9999 10.5181 19.9999 10.5181C19.9999 10.5181 20.0164 7.25616 19.5881 5.69109Z" fill="white"/>
<path d="M8.00659 13.5001L13.2125 10.5018L8.00659 7.50342V13.5001Z" fill="#030712"/>
</svg>
