<svg width="20" height="21" viewBox="0 0 20 21" fill="none" xmlns="http://www.w3.org/2000/svg">
<path d="M19.9439 6.3767C19.8959 5.31185 19.7239 4.58327 19.4799 3.94676C19.2238 3.29023 18.8837 2.72978 18.3276 2.17734C17.7715 1.6249 17.2154 1.27662 16.5593 1.02442C15.9231 0.776221 15.195 0.608086 14.1308 0.560048C13.0626 0.51201 12.7225 0.5 10.01 0.5C7.29342 0.5 6.95335 0.51201 5.88914 0.560048C4.82492 0.608086 4.09678 0.780224 3.46065 1.02442C2.80052 1.28062 2.24041 1.6209 1.6883 2.17734C1.13619 2.73379 0.788118 3.29023 0.536068 3.94676C0.292019 4.58327 0.119984 5.31185 0.0719749 6.3767C0.0239653 7.44556 0.0119629 7.78583 0.0119629 10.5C0.0119629 13.2182 0.0239653 13.5584 0.0719749 14.6233C0.119984 15.6882 0.292019 16.4167 0.536068 17.0532C0.792119 17.7098 1.13219 18.2702 1.6883 18.8227C2.24041 19.3791 2.80052 19.7234 3.45665 19.9756C4.09278 20.2238 4.82092 20.3919 5.88514 20.44C6.95335 20.488 7.29342 20.5 10.006 20.5C12.7225 20.5 13.0626 20.488 14.1268 20.44C15.191 20.3919 15.9191 20.2198 16.5553 19.9756C17.2114 19.7194 17.7715 19.3791 18.3236 18.8227C18.8757 18.2662 19.2238 17.7098 19.4759 17.0532C19.7239 16.4167 19.8919 15.6882 19.9399 14.6233C19.988 13.5544 20 13.2142 20 10.5C20 7.78583 19.992 7.44155 19.9439 6.3767ZM18.1476 14.5432C18.1036 15.52 17.9395 16.0524 17.8035 16.4007C17.6235 16.8651 17.4034 17.2014 17.0514 17.5536C16.6993 17.9059 16.3672 18.1181 15.8991 18.3062C15.5471 18.4424 15.015 18.6065 14.0428 18.6505C12.9906 18.6986 12.6745 18.7106 10.002 18.7106C7.32943 18.7106 7.01336 18.6986 5.96115 18.6505C4.98496 18.6065 4.45285 18.4424 4.10478 18.3062C3.64069 18.1261 3.30462 17.9059 2.95255 17.5536C2.60048 17.2014 2.38844 16.8691 2.2004 16.4007C2.06437 16.0484 1.90034 15.516 1.85633 14.5432C1.80832 13.4904 1.79632 13.1741 1.79632 10.5C1.79632 7.82586 1.80832 7.50961 1.85633 6.45677C1.90034 5.47998 2.06437 4.94756 2.2004 4.59928C2.38044 4.13491 2.60048 3.79864 2.95255 3.44636C3.30462 3.09408 3.63669 2.88191 4.10478 2.69376C4.45685 2.55765 4.98896 2.39351 5.96115 2.34948C7.01336 2.30144 7.32943 2.28943 10.002 2.28943C12.6745 2.28943 12.9906 2.30144 14.0428 2.34948C15.019 2.39351 15.5511 2.55765 15.8991 2.69376C16.3632 2.8739 16.6993 3.09408 17.0514 3.44636C17.4034 3.79864 17.6155 4.13091 17.8035 4.59928C17.9395 4.95156 18.1036 5.48399 18.1476 6.45677C18.1956 7.50961 18.2076 7.82586 18.2076 10.5C18.2076 13.1741 18.1916 13.4904 18.1476 14.5432Z" fill="white"/>
<path d="M10.002 5.35986C7.16145 5.35986 4.86499 7.6617 4.86499 10.5C4.86499 13.3422 7.16545 15.6401 10.002 15.6401C12.8386 15.6401 15.139 13.3342 15.139 10.5C15.139 7.6577 12.8426 5.35986 10.002 5.35986ZM10.002 13.8346C8.16165 13.8346 6.66935 12.3414 6.66935 10.5C6.66935 8.6585 8.16165 7.16531 10.002 7.16531C11.8424 7.16531 13.3347 8.6585 13.3347 10.5C13.3347 12.3414 11.8424 13.8346 10.002 13.8346Z" fill="white"/>
<path d="M15.3392 6.36091C16.002 6.36091 16.5394 5.82322 16.5394 5.15995C16.5394 4.49667 16.002 3.95898 15.3392 3.95898C14.6763 3.95898 14.1389 4.49667 14.1389 5.15995C14.1389 5.82322 14.6763 6.36091 15.3392 6.36091Z" fill="white"/>
<path d="M0 10.5C0 13.2182 0.0120024 13.5584 0.060012 14.6233C0.108022 15.6882 0.280056 16.4167 0.524105 17.0532C0.780156 17.7098 1.12022 18.2702 1.67634 18.8227C2.22845 19.3751 2.78856 19.7234 3.44469 19.9756C4.08082 20.2238 4.80896 20.3919 5.87318 20.44C6.94139 20.488 7.28146 20.5 9.994 20.5C12.7105 20.5 13.0506 20.488 14.1148 20.44C15.179 20.3919 15.9072 20.2198 16.5433 19.9756C17.1994 19.7194 17.7596 19.3791 18.3117 18.8227C18.8638 18.2702 19.2118 17.7098 19.4639 17.0532C19.7119 16.4167 19.88 15.6882 19.928 14.6233C19.976 13.5544 19.988 13.2142 19.988 10.5C19.988 7.78183 19.976 7.44155 19.928 6.3767C19.88 5.31185 19.7079 4.58327 19.4639 3.94676C19.2078 3.29023 18.8678 2.72978 18.3117 2.17734C17.7636 1.6209 17.2034 1.27662 16.5473 1.02442C15.9112 0.776221 15.183 0.608086 14.1188 0.560048C13.0506 0.51201 12.7105 0.5 9.998 0.5C7.28146 0.5 6.94139 0.51201 5.87718 0.560048C4.81296 0.608086 4.08482 0.780224 3.44869 1.02442C2.79256 1.28062 2.23245 1.6209 1.68034 2.17734C1.12823 2.73379 0.780156 3.29023 0.528106 3.94676C0.280056 4.58327 0.108022 5.31185 0.060012 6.3767C0.0120024 7.44155 0 7.78183 0 10.5ZM1.80436 10.5C1.80436 7.82986 1.81636 7.50961 1.86437 6.45677C1.90838 5.47998 2.07241 4.94756 2.20844 4.59928C2.38848 4.13491 2.60852 3.79864 2.96059 3.44636C3.31266 3.09408 3.64473 2.88191 4.11282 2.69376C4.46489 2.55765 4.997 2.39351 5.96919 2.34948C7.0214 2.30144 7.33747 2.28943 10.01 2.28943C12.6825 2.28943 12.9986 2.30144 14.0508 2.34948C15.027 2.39351 15.5591 2.55765 15.9072 2.69376C16.3713 2.8739 16.7073 3.09408 17.0594 3.44636C17.4115 3.79864 17.6235 4.13091 17.8116 4.59928C17.9476 4.95156 18.1116 5.48399 18.1556 6.45677C18.2036 7.50961 18.2156 7.82586 18.2156 10.5C18.2156 13.1741 18.2036 13.4904 18.1556 14.5432C18.1116 15.52 17.9476 16.0524 17.8116 16.4007C17.6315 16.8651 17.4115 17.2014 17.0594 17.5536C16.7073 17.9059 16.3753 18.1181 15.9072 18.3062C15.5551 18.4424 15.023 18.6065 14.0508 18.6505C12.9986 18.6986 12.6825 18.7106 10.01 18.7106C7.33747 18.7106 7.0214 18.6986 5.96919 18.6505C4.993 18.6065 4.46089 18.4424 4.11282 18.3062C3.64873 18.1261 3.31266 17.9059 2.96059 17.5536C2.60852 17.2014 2.39648 16.8691 2.20844 16.4007C2.07241 16.0484 1.90838 15.516 1.86437 14.5432C1.81236 13.4904 1.80436 13.1701 1.80436 10.5Z" fill="white"/>
</svg>
