<svg width="33" height="32" viewBox="0 0 33 32" fill="none" xmlns="http://www.w3.org/2000/svg">
<path d="M16.7129 15.4932C16.6729 15.4932 16.6463 15.4932 16.6063 15.4932C16.5396 15.4798 16.4463 15.4798 16.3663 15.4932C12.4996 15.3732 9.57959 12.3332 9.57959 8.5865C9.57959 4.77317 12.6863 1.6665 16.4996 1.6665C20.3129 1.6665 23.4196 4.77317 23.4196 8.5865C23.4063 12.3332 20.4729 15.3732 16.7529 15.4932C16.7396 15.4932 16.7263 15.4932 16.7129 15.4932ZM16.4996 3.6665C13.7929 3.6665 11.5796 5.87984 11.5796 8.5865C11.5796 11.2532 13.6596 13.3998 16.3129 13.4932C16.3796 13.4798 16.5663 13.4798 16.7396 13.4932C19.3529 13.3732 21.4063 11.2265 21.4196 8.5865C21.4196 5.87984 19.2063 3.6665 16.4996 3.6665Z" fill="#9098A0"/>
<path d="M16.7261 30.0668C14.1128 30.0668 11.4861 29.4002 9.49948 28.0668C7.64615 26.8402 6.63281 25.1602 6.63281 23.3335C6.63281 21.5068 7.64615 19.8135 9.49948 18.5735C13.4995 15.9202 19.9795 15.9202 23.9528 18.5735C25.7928 19.8002 26.8195 21.4802 26.8195 23.3068C26.8195 25.1335 25.8061 26.8268 23.9528 28.0668C21.9528 29.4002 19.3395 30.0668 16.7261 30.0668ZM10.6061 20.2535C9.32615 21.1068 8.63281 22.2002 8.63281 23.3468C8.63281 24.4802 9.33948 25.5735 10.6061 26.4135C13.9261 28.6402 19.5261 28.6402 22.8461 26.4135C24.1261 25.5602 24.8195 24.4668 24.8195 23.3202C24.8195 22.1868 24.1128 21.0935 22.8461 20.2535C19.5261 18.0402 13.9261 18.0402 10.6061 20.2535Z" fill="#9098A0"/>
</svg>
